<?xml version="1.0" encoding="utf-8"?>
<!-- Generator: Adobe Illustrator 17.1.0, SVG Export Plug-In . SVG Version: 6.00 Build 0)  -->
<!DOCTYPE svg PUBLIC "-//W3C//DTD SVG 1.1//EN" "http://www.w3.org/Graphics/SVG/1.1/DTD/svg11.dtd">
<svg version="1.1" id="Capa_1" xmlns="http://www.w3.org/2000/svg" xmlns:xlink="http://www.w3.org/1999/xlink" x="0px" y="0px"
	 viewBox="0 0 612 792" enable-background="new 0 0 612 792" xml:space="preserve">
<g id="lluvia">
	<g>
		<path fill="#010101" d="M185.5,432.3c0,0-47.9,35.7-18,47.1C197.5,490.8,185.5,432.3,185.5,432.3z"/>
		<path fill="#010101" d="M240.5,432.3c0,0-47.9,35.7-18,47.1S240.5,432.3,240.5,432.3z"/>
		<path fill="#010101" d="M295.5,432.3c0,0-47.9,35.7-18,47.1C307.5,490.8,295.5,432.3,295.5,432.3z"/>
		<path fill="#010101" d="M350.4,432.3c0,0-47.9,35.7-18,47.1C362.5,490.8,350.4,432.3,350.4,432.3z"/>
		<path fill="#010101" d="M405.4,432.3c0,0-47.9,35.7-18,47.1C417.5,490.8,405.4,432.3,405.4,432.3z"/>
		<path fill="#010101" d="M203.8,524c0,0-47.9,35.7-18,47.1C215.9,582.5,203.8,524,203.8,524z"/>
		<path fill="#010101" d="M258.8,524c0,0-47.9,35.7-18,47.1C270.9,582.5,258.8,524,258.8,524z"/>
		<path fill="#010101" d="M313.8,524c0,0-47.9,35.7-18,47.1C325.8,582.5,313.8,524,313.8,524z"/>
		<path fill="#010101" d="M368.8,524c0,0-47.9,35.7-18,47.1C380.8,582.5,368.8,524,368.8,524z"/>
		<path fill="#010101" d="M423.7,524c0,0-47.9,35.7-18,47.1C435.8,582.5,423.7,524,423.7,524z"/>
		<path fill="#010101" d="M222.2,615.6c0,0-47.9,35.7-18,47.1C234.2,674.1,222.2,615.6,222.2,615.6z"/>
		<path fill="#010101" d="M277.1,615.6c0,0-47.9,35.7-18,47.1C289.2,674.1,277.1,615.6,277.1,615.6z"/>
		<path fill="#010101" d="M332.1,615.6c0,0-47.9,35.7-18,47.1C344.1,674.1,332.1,615.6,332.1,615.6z"/>
		<path fill="#010101" d="M387.1,615.6c0,0-47.9,35.7-18,47.1C399.1,674.1,387.1,615.6,387.1,615.6z"/>
		<path fill="#010101" d="M460.4,432.3c0,0-47.9,35.7-18,47.1C472.4,490.8,460.4,432.3,460.4,432.3z"/>
	</g>
</g>
<g id="niebla">
	<g opacity="0.5">
		<g>
			<g>
				<path fill="#010101" d="M457.3,657c-0.6,0-1.2,0-1.8-0.1c-11.7-0.7-22.4-8-29.5-20.1l-5.3-9.1c-2.4-4.1-4.5-5-4.9-5
					c-0.4,0-2.5,0.9-4.9,5l-5.3,9.1c-6.9,11.8-17.4,18.6-28.6,18.6s-21.7-6.8-28.7-18.6l-5.3-9.1c-2-3.3-4.4-5.4-6.4-5.5
					c-1.9-0.2-4.6,1.7-6.9,4.9l-9.4,12.8c-7.9,10.8-19.1,16.7-30.6,16.1c-11.5-0.6-22-7.6-28.8-19.1l-5.3-9.1
					c-2-3.4-4.4-5.4-6.4-5.5c-2,0-4.6,1.7-6.9,4.9l-9.4,12.8c-7.9,10.8-19.1,16.7-30.6,16.1c-11.5-0.6-22-7.5-28.8-19.1l-5.3-9.1
					c-2.1-3.6-4.8-5.8-7.4-6c-2.5-0.3-5.4,1.4-8,4.5l-21.2,25.1l-21.1-17.8l21.2-25.1c8.4-10,20-15.2,31.5-14.2
					c11.6,1,22.2,8.1,28.9,19.6l5.3,9.1c2,3.3,4.3,5.4,6.4,5.5c2.1,0,4.6-1.7,6.9-4.9l9.4-12.8c7.9-10.8,19.1-16.7,30.6-16.1
					c11.5,0.6,22,7.6,28.8,19.1l5.3,9.1c2,3.4,4.4,5.4,6.4,5.5c2.2,0.2,4.6-1.7,6.9-4.9l9.4-12.8c7.9-10.8,19.1-16.7,30.6-16.1
					c11.5,0.6,22,7.5,28.8,19.1l5.3,9.1c2.4,4.1,4.5,5,4.9,5s2.5-0.9,4.9-5l5.3-9.1c6.9-11.8,17.4-18.6,28.6-18.6
					s21.7,6.8,28.7,18.6l5.3,9.1c2.7,4.7,5.7,6.4,7.4,6.5c1.8,0.2,3.6-1.9,4.5-3.1l18-23.7l22,16.7l-18,23.7
					C476.8,652,467.3,657,457.3,657z"/>
			</g>
		</g>
		<g>
			<g>
				<path fill="#010101" d="M457.3,579.7c-0.6,0-1.2,0-1.8-0.1c-11.7-0.7-22.4-8-29.5-20.1l-5.3-9.1c-2.4-4.1-4.5-5-4.9-5
					c-0.4,0-2.5,0.9-4.9,5l-5.3,9.1c-6.9,11.8-17.4,18.6-28.6,18.6s-21.7-6.8-28.7-18.6l-5.3-9.1c-2-3.3-4.4-5.4-6.4-5.5
					c-1.9-0.2-4.6,1.7-6.9,4.9l-9.4,12.8c-7.9,10.8-19.1,16.7-30.6,16.1c-11.5-0.6-22-7.6-28.8-19.1l-5.3-9.1
					c-2-3.4-4.4-5.4-6.4-5.5c-2,0-4.6,1.7-6.9,4.9l-9.4,12.8c-7.9,10.8-19.1,16.7-30.6,16.1c-11.5-0.6-22-7.5-28.8-19.1l-5.4-9.1
					c-2.1-3.6-4.8-5.8-7.4-6c-2.6-0.3-5.4,1.4-8,4.5L131.5,574l-21.1-17.8l21.2-25.1c8.4-10,20-15.2,31.5-14.2
					c11.6,1,22.2,8.1,28.9,19.6l5.3,9.1c2,3.3,4.3,5.4,6.4,5.5c2.1,0,4.6-1.7,6.9-4.9l9.4-12.8c7.9-10.8,19.1-16.6,30.6-16.1
					c11.5,0.6,22,7.6,28.8,19.1l5.3,9.1c2,3.4,4.4,5.4,6.4,5.5c2.2,0.2,4.6-1.7,6.9-4.9l9.4-12.8c7.9-10.8,19.1-16.7,30.6-16.1
					c11.5,0.6,22,7.5,28.8,19.1l5.3,9.1c2.4,4.1,4.5,5,4.9,5s2.5-0.9,4.9-5l5.3-9.1c6.9-11.8,17.4-18.6,28.6-18.6
					s21.7,6.8,28.7,18.6l5.3,9.1c2.7,4.7,5.7,6.4,7.4,6.5c1.8,0.2,3.6-1.9,4.5-3.1l18-23.7l22,16.7l-18,23.7
					C476.8,574.7,467.3,579.7,457.3,579.7z"/>
			</g>
		</g>
		<g>
			<g>
				<path fill="#010101" d="M457.3,502.4c-0.6,0-1.2,0-1.8-0.1c-11.7-0.7-22.4-8-29.5-20.1l-5.3-9.1c-2.4-4.1-4.5-5-4.9-5
					c-0.4,0-2.5,0.9-4.9,5l-5.3,9.1c-6.9,11.8-17.4,18.6-28.6,18.6s-21.7-6.8-28.7-18.6l-5.3-9.1c-2-3.3-4.4-5.4-6.4-5.5
					c-1.9-0.2-4.6,1.7-6.9,4.9l-9.4,12.8c-7.9,10.8-19.1,16.6-30.6,16.1c-11.5-0.6-22-7.6-28.8-19.1l-5.3-9.1
					c-2-3.4-4.4-5.4-6.4-5.5c-2,0-4.6,1.7-6.9,4.9l-9.4,12.8c-7.9,10.8-19.1,16.7-30.6,16.1c-11.5-0.6-22-7.5-28.8-19.1l-5.3-9.1
					c-2.1-3.6-4.8-5.8-7.4-6c-2.5-0.3-5.4,1.4-8,4.5l-21.2,25.1L110.4,479l21.2-25.1c8.4-10,20-15.2,31.5-14.2
					c11.6,1,22.2,8.1,28.9,19.6l5.3,9.1c2,3.3,4.3,5.4,6.4,5.5c2.1,0,4.6-1.7,6.9-4.9l9.4-12.8c7.9-10.8,19.1-16.7,30.6-16.1
					c11.5,0.6,22,7.6,28.8,19.1l5.3,9.1c2,3.4,4.4,5.4,6.4,5.5c2.2,0.2,4.6-1.7,6.9-4.9l9.4-12.8c7.9-10.8,19.1-16.7,30.6-16.1
					c11.5,0.6,22,7.5,28.8,19.1l5.3,9.1c2.4,4.1,4.5,5,4.9,5s2.5-0.9,4.9-5l5.3-9.1c6.9-11.8,17.4-18.6,28.6-18.6
					s21.7,6.8,28.7,18.6l5.3,9.1c2.7,4.7,5.7,6.4,7.4,6.5c1.8,0.1,3.6-1.9,4.5-3.1l18-23.7l22,16.7l-18,23.7
					C476.8,497.4,467.3,502.4,457.3,502.4z"/>
			</g>
		</g>
	</g>
</g>
<g id="nuve">
	<path fill="#010101" d="M464.8,390.3H118.1c-32.4,0-58.6-26.3-58.6-58.6c0-27.4,18.9-50.6,44.4-56.9c11.4-28.4,37.7-48.8,68.4-52.4
		c3.2-66,58-118.7,124.8-118.7c49,0,92.7,28.8,112.9,71.5c16.6-9.1,35.4-14,54.8-14c63.2,0,114.6,51.4,114.6,114.6
		S528,390.3,464.8,390.3L464.8,390.3z M117.7,313.4c-9.9,0.2-17.8,8.3-17.8,18.2c0,10,8.2,18.2,18.2,18.2h346.7
		c40.9,0,74.1-33.3,74.1-74.1c0-40.9-33.3-74.1-74.1-74.1c-19.2,0-37.3,7.3-51.2,20.5L387,247.4l-7.3-35.9
		c-8-39.1-42.8-67.5-82.8-67.5c-46.6,0-84.5,37.9-84.5,84.5c0,3.8,0.3,7.7,0.8,11.7l3.8,27.5l-27.3-4.8c-2.6-0.4-5.2-0.7-7.7-0.7
		c-20.8,0-38.9,14.8-43,35.1l-3.4,16.8l-17.1-0.6C118.4,313.5,118,313.4,117.7,313.4L117.7,313.4z"/>
</g>
</svg>
