<?xml version="1.0" encoding="utf-8"?>
<!-- Generator: Adobe Illustrator 17.1.0, SVG Export Plug-In . SVG Version: 6.00 Build 0)  -->
<!DOCTYPE svg PUBLIC "-//W3C//DTD SVG 1.1//EN" "http://www.w3.org/Graphics/SVG/1.1/DTD/svg11.dtd">
<svg version="1.1" id="Capa_1" xmlns="http://www.w3.org/2000/svg" xmlns:xlink="http://www.w3.org/1999/xlink" x="0px" y="0px"
	 viewBox="0 0 612 792" enable-background="new 0 0 612 792" xml:space="preserve">
<g id="nieve">
	<path fill="#010101" d="M265.2,408l22.2,32.8h41.4l19.1-32.8L327.7,373h-41.5L265.2,408z M282.2,671.8v-74.2l-41.5,23.3l-21.1-12.1
		v-26.1l61.5-34.9V499l-44.6,28.7V476l-42.6,24.6v70l-23.3,14.4l-19.7-13v-46.9l-64.7,36.5L58.6,550v-29.6l67.9-37.1L84,461.9v-27.1
		l24.1-13.2l60.9,35.9l42.3-24.4l-1-0.8l-43.2-24.8l42-26.1L166.9,357L106,392.8l-22.8-11.4v-27l41.2-23.2l-65.8-35.7v-29.6l25.2-13
		l64.8,37.4v-47.7l19.5-13.2l23.9,13.8l-0.2,71.4l43.6,24.9l-0.1-50.5l45.7,24.6v-48.8l-61.5-35V204l21.1-12.2l41.5,23.3v-74
		l23.7-15.5l23.9,15.5v74l42.9-23.8l21.6,14.3v23.3l-63.6,36v48.8l43.5-26.5v53.1l44.8-24.4v-76.4l21.6-10.1l22.7,10.1v48.8l66.7-36
		l23.3,14.2v27.6l-65.2,37L529,354v26.4L507.9,392l-62.5-37l-43.2,27.5l41.8,26.1l-43.1,24.8l44.5,23.3l62.5-34.9L528,436v25.2
		l-39.2,22.1l62.5,37.1v29.1l-26.5,12.1l-61.4-34.9v46.2l-22.1,12.3l-21.6-12.3v-70.2l-45.5-25.9v48.8L330.8,499v48.8l61.5,34.9
		v27.6L371,620.9l-41.2-23.3v74.2l-23.9,15.4L282.2,671.8z"/>
</g>
</svg>
