<?xml version="1.0" encoding="utf-8"?>
<!-- Generator: Adobe Illustrator 17.1.0, SVG Export Plug-In . SVG Version: 6.00 Build 0)  -->
<!DOCTYPE svg PUBLIC "-//W3C//DTD SVG 1.1//EN" "http://www.w3.org/Graphics/SVG/1.1/DTD/svg11.dtd">
<svg version="1.1" id="Capa_1" xmlns="http://www.w3.org/2000/svg" xmlns:xlink="http://www.w3.org/1999/xlink" x="0px" y="0px"
	 viewBox="0 0 612 792" enable-background="new 0 0 612 792" xml:space="preserve">
<g id="nieve">
	<path fill="#010101" d="M433.3,456.9l4.5,6.6h8.3l3.9-6.6l-4.1-7h-8.4L433.3,456.9z M436.8,510.1v-15l-8.4,4.7l-4.3-2.4v-5.3
		l12.4-7v-9.8l-9,5.8v-10.4l-8.6,5v14.1l-4.7,2.9l-4-2.6v-9.5l-13,7.4l-5.5-2.4v-6l13.7-7.5l-8.6-4.3v-5.5l4.9-2.7l12.3,7.2l8.5-4.9
		l-0.2-0.2l-8.7-5l8.5-5.3l-8.5-4.9l-12.3,7.2l-4.6-2.3v-5.4l8.3-4.7l-13.3-7.2v-6l5.1-2.6l13.1,7.5v-9.6l3.9-2.7l4.8,2.8l0,14.4
		l8.8,5l0-10.2l9.2,5v-9.8l-12.4-7.1v-5.2l4.3-2.5l8.4,4.7v-14.9l4.8-3.1l4.8,3.1v14.9l8.6-4.8l4.3,2.9v4.7l-12.8,7.3v9.8l8.8-5.3
		v10.7l9-4.9V423l4.3-2l4.6,2v9.9l13.4-7.3l4.7,2.9v5.6l-13.1,7.5l8.2,4.6v5.3l-4.3,2.4l-12.6-7.4l-8.7,5.5l8.4,5.3l-8.7,5l9,4.7
		l12.6-7l4.1,2.9v5.1l-7.9,4.4l12.6,7.5v5.9l-5.3,2.4l-12.4-7v9.3l-4.4,2.5l-4.3-2.5v-14.2l-9.2-5.2v9.8l-8.8-5.3v9.8l12.4,7v5.6
		l-4.3,2.1l-8.3-4.7v15l-4.8,3.1L436.8,510.1z"/>
	<path fill="#010101" d="M311.2,456.9l4.5,6.6h8.3l3.9-6.6l-4.1-7h-8.4L311.2,456.9z M314.6,510.1v-15l-8.4,4.7l-4.3-2.4v-5.3
		l12.4-7v-9.8l-9,5.8v-10.4l-8.6,5v14.1l-4.7,2.9l-4-2.6v-9.5l-13,7.4l-5.6-2.3v-6l13.7-7.5l-8.6-4.3v-5.5l4.9-2.7l12.3,7.2l8.5-4.9
		l-0.2-0.2l-8.7-5l8.5-5.3l-8.5-4.9l-12.3,7.2l-4.6-2.3v-5.4l8.3-4.7l-13.3-7.2v-6l5.1-2.6l13.1,7.5v-9.6l3.9-2.7l4.8,2.8l0,14.4
		l8.8,5l0-10.2l9.2,5v-9.8l-12.4-7.1v-5.2l4.3-2.5l8.4,4.7v-14.9l4.8-3.1l4.8,3.1v14.9l8.6-4.8l4.3,2.9v4.7l-12.8,7.3v9.8l8.8-5.3
		v10.7l9-4.9V423l4.3-2l4.6,2v9.9l13.4-7.3l4.7,2.9v5.6l-13.1,7.5l8.2,4.6v5.3l-4.3,2.4l-12.6-7.4l-8.7,5.5l8.4,5.3l-8.7,5l9,4.7
		l12.6-7l4.1,2.9v5.1l-7.9,4.4l12.6,7.5v5.9l-5.3,2.4l-12.4-7v9.3l-4.4,2.5l-4.3-2.5v-14.2l-9.2-5.2v9.8l-8.8-5.3v9.8l12.4,7v5.6
		l-4.3,2.1l-8.3-4.7v15l-4.8,3.1L314.6,510.1z"/>
	<path fill="#010101" d="M374,564.9l4.5,6.6h8.3l3.9-6.6l-4.1-7h-8.4L374,564.9z M377.5,618.1v-15l-8.4,4.7l-4.3-2.4v-5.3l12.4-7
		v-9.8l-9,5.8v-10.4l-8.6,5v14.1l-4.7,2.9l-4-2.7v-9.5l-13,7.4l-5.6-2.3v-6l13.7-7.5l-8.6-4.3v-5.5l4.9-2.7l12.3,7.2l8.5-4.9
		l-0.2-0.2l-8.7-5l8.5-5.3l-8.5-4.9l-12.3,7.2l-4.6-2.3v-5.4l8.3-4.7l-13.3-7.2v-6l5.1-2.6l13.1,7.5v-9.6l3.9-2.7l4.8,2.8l0,14.4
		l8.8,5l0-10.2l9.2,5V536l-12.4-7.1v-5.2l4.3-2.5l8.4,4.7v-14.9l4.8-3.1l4.8,3.1V526l8.6-4.8l4.3,2.9v4.7l-12.8,7.3v9.8l8.8-5.3
		v10.7l9-4.9v-15.4l4.3-2l4.6,2v9.9l13.4-7.3l4.7,2.9v5.6l-13.1,7.5l8.2,4.6v5.3l-4.3,2.4l-12.6-7.4l-8.7,5.5l8.4,5.3l-8.7,5l9,4.7
		l12.6-7l4.1,2.9v5.1l-7.9,4.4l12.6,7.5v5.9l-5.3,2.4l-12.4-7v9.3l-4.4,2.5l-4.3-2.5V584l-9.2-5.2v9.8l-8.8-5.3v9.8l12.4,7v5.6
		l-4.3,2.1l-8.3-4.7v15l-4.8,3.1L377.5,618.1z"/>
	<path fill="#010101" d="M248.3,564.9l4.5,6.6h8.3l3.9-6.6l-4.1-7h-8.4L248.3,564.9z M251.7,618.1v-15l-8.4,4.7l-4.3-2.4v-5.3
		l12.4-7v-9.8l-9,5.8v-10.4l-8.6,5v14.1l-4.7,2.9l-4-2.7v-9.5l-13,7.4l-5.6-2.3v-6l13.7-7.5l-8.6-4.3v-5.5l4.9-2.7l12.3,7.2l8.5-4.9
		l-0.2-0.2l-8.7-5l8.5-5.3l-8.5-4.9l-12.3,7.2l-4.6-2.3v-5.4l8.3-4.7l-13.3-7.2v-6l5.1-2.6l13.1,7.5v-9.6l3.9-2.7l4.8,2.8l0,14.4
		l8.8,5l0-10.2l9.2,5v-9.8l-12.4-7.1v-5.2l4.3-2.5l8.4,4.7v-14.9l4.8-3.1l4.8,3.1V526l8.6-4.8l4.3,2.9v4.7l-12.8,7.3v9.8l8.8-5.3
		v10.7l9-4.9v-15.4l4.3-2l4.6,2v9.9l13.4-7.3l4.7,2.9v5.6l-13.1,7.5l8.2,4.6v5.3l-4.3,2.4l-12.6-7.4l-8.7,5.5l8.4,5.3l-8.7,5l9,4.7
		l12.6-7l4.1,2.9v5.1l-7.9,4.4l12.6,7.5v5.9l-5.3,2.4l-12.4-7v9.3l-4.4,2.5l-4.3-2.5V584l-9.2-5.2v9.8l-8.8-5.3v9.8l12.4,7v5.6
		l-4.3,2.1l-8.3-4.7v15l-4.8,3.1L251.7,618.1z"/>
	<path fill="#010101" d="M182.5,456.9l4.5,6.6h8.3l3.9-6.6l-4.1-7h-8.4L182.5,456.9z M186,510.1v-15l-8.4,4.7l-4.3-2.4v-5.3l12.4-7
		v-9.8l-9,5.8v-10.4l-8.6,5v14.1l-4.7,2.9l-4-2.6v-9.5l-13,7.4l-5.6-2.3v-6l13.7-7.5l-8.6-4.3v-5.5l4.9-2.7l12.3,7.2l8.5-4.9
		l-0.2-0.2l-8.7-5l8.5-5.3l-8.5-4.9l-12.3,7.2l-4.6-2.3v-5.4l8.3-4.7l-13.3-7.2v-6l5.1-2.6l13.1,7.5v-9.6l3.9-2.7l4.8,2.8l0,14.4
		l8.8,5l0-10.2l9.2,5v-9.8l-12.4-7.1v-5.2l4.3-2.5l8.4,4.7v-14.9l4.8-3.1l4.8,3.1v14.9l8.6-4.8l4.3,2.9v4.7l-12.8,7.3v9.8l8.8-5.3
		v10.7l9-4.9V423l4.3-2l4.6,2v9.9l13.4-7.3l4.7,2.9v5.6l-13.1,7.5l8.2,4.6v5.3l-4.3,2.4l-12.6-7.4l-8.7,5.5l8.4,5.3l-8.7,5l9,4.7
		l12.6-7l4.1,2.9v5.1l-7.9,4.4l12.6,7.5v5.9l-5.3,2.4l-12.4-7v9.3l-4.4,2.5l-4.3-2.5v-14.2l-9.2-5.2v9.8l-8.8-5.3v9.8l12.4,7v5.6
		l-4.3,2.1l-8.3-4.7v15l-4.8,3.1L186,510.1z"/>
</g>
<g id="nuve">
	<path fill="#010101" d="M464.8,390.3H118.1c-32.4,0-58.6-26.3-58.6-58.6c0-27.4,18.9-50.6,44.4-56.9c11.4-28.4,37.7-48.8,68.4-52.4
		c3.2-66,58-118.7,124.8-118.7c49,0,92.7,28.8,112.9,71.5c16.6-9.1,35.4-14,54.8-14c63.2,0,114.6,51.4,114.6,114.6
		S528,390.3,464.8,390.3L464.8,390.3z M117.7,313.4c-9.9,0.2-17.8,8.3-17.8,18.2c0,10,8.2,18.2,18.2,18.2h346.7
		c40.9,0,74.1-33.3,74.1-74.1c0-40.9-33.3-74.1-74.1-74.1c-19.2,0-37.3,7.3-51.2,20.5L387,247.4l-7.3-35.9
		c-8-39.1-42.8-67.5-82.8-67.5c-46.6,0-84.5,37.9-84.5,84.5c0,3.8,0.3,7.7,0.8,11.7l3.8,27.5l-27.3-4.8c-2.6-0.4-5.2-0.7-7.7-0.7
		c-20.8,0-38.9,14.8-43,35.1l-3.4,16.8l-17.1-0.6C118.4,313.5,118,313.4,117.7,313.4L117.7,313.4z"/>
</g>
</svg>
