<?xml version="1.0" encoding="utf-8"?>
<!-- Generator: Adobe Illustrator 17.1.0, SVG Export Plug-In . SVG Version: 6.00 Build 0)  -->
<!DOCTYPE svg PUBLIC "-//W3C//DTD SVG 1.1//EN" "http://www.w3.org/Graphics/SVG/1.1/DTD/svg11.dtd">
<svg version="1.1" id="Capa_1" xmlns="http://www.w3.org/2000/svg" xmlns:xlink="http://www.w3.org/1999/xlink" x="0px" y="0px"
	 viewBox="0 0 612 792" enable-background="new 0 0 612 792" xml:space="preserve">
<g id="nieve">
	<path fill="#010101" d="M418.2,483.2l4.5,6.6h8.3l3.9-6.6l-4.1-7h-8.4L418.2,483.2z M421.7,536.4v-15l-8.4,4.7l-4.3-2.4v-5.3
		l12.4-7v-9.8l-9,5.8v-10.4l-8.6,5V516l-4.7,2.9l-4-2.6v-9.5l-13,7.4l-5.6-2.3v-6l13.7-7.5l-8.6-4.3v-5.5l4.9-2.7l12.3,7.2l8.5-4.9
		l-0.2-0.2l-8.7-5l8.5-5.3l-8.5-4.9l-12.3,7.2l-4.6-2.3v-5.4l8.3-4.7l-13.3-7.2v-6l5.1-2.6l13.1,7.5v-9.6l3.9-2.7l4.8,2.8l0,14.4
		l8.8,5l0-10.2l9.2,5v-9.8l-12.4-7.1v-5.2l4.3-2.5l8.4,4.7v-14.9l4.8-3.1l4.8,3.1v14.9l8.6-4.8l4.3,2.9v4.7l-12.8,7.3v9.8l8.8-5.3
		v10.7l9-4.9v-15.4l4.3-2l4.6,2v9.9l13.4-7.3l4.7,2.9v5.6l-13.1,7.5l8.2,4.6v5.3l-4.3,2.4l-12.6-7.4l-8.7,5.5l8.4,5.3l-8.7,5l9,4.7
		l12.6-7l4.1,2.9v5.1l-7.9,4.4l12.6,7.5v5.9l-5.3,2.4l-12.4-7v9.3l-4.4,2.5l-4.3-2.5v-14.2l-9.2-5.2v9.8l-8.8-5.3v9.8l12.4,7v5.6
		l-4.3,2.1l-8.3-4.7v15l-4.8,3.1L421.7,536.4z"/>
	<path fill="#010101" d="M292.5,483.2l4.5,6.6h8.3l3.9-6.6l-4.1-7h-8.4L292.5,483.2z M295.9,536.4v-15l-8.4,4.7l-4.3-2.4v-5.3
		l12.4-7v-9.8l-9,5.8v-10.4l-8.6,5V516l-4.7,2.9l-4-2.6v-9.5l-13,7.4l-5.6-2.3v-6l13.7-7.5l-8.6-4.3v-5.5l4.9-2.7l12.3,7.2l8.5-4.9
		l-0.2-0.2l-8.7-5l8.5-5.3l-8.5-4.9l-12.3,7.2l-4.6-2.3v-5.4l8.3-4.7l-13.3-7.2v-6l5.1-2.6l13.1,7.5v-9.6l3.9-2.7l4.8,2.8l0,14.4
		l8.8,5l0-10.2l9.2,5v-9.8l-12.4-7.1v-5.2l4.3-2.5l8.4,4.7v-14.9l4.8-3.1l4.8,3.1v14.9l8.6-4.8l4.3,2.9v4.7l-12.8,7.3v9.8l8.8-5.3
		v10.7l9-4.9v-15.4l4.3-2l4.6,2v9.9l13.4-7.3l4.7,2.9v5.6l-13.1,7.5l8.2,4.6v5.3l-4.3,2.4l-12.6-7.4l-8.7,5.5l8.4,5.3l-8.7,5l9,4.7
		l12.6-7l4.1,2.9v5.1l-7.9,4.4l12.6,7.5v5.9l-5.3,2.4l-12.4-7v9.3L328,519l-4.3-2.5v-14.2l-9.2-5.2v9.8l-8.8-5.3v9.8l12.4,7v5.6
		l-4.3,2.1l-8.3-4.7v15l-4.8,3.1L295.9,536.4z"/>
	<path fill="#010101" d="M352.5,605.2l4.5,6.6h8.3l3.9-6.6l-4.1-7h-8.4L352.5,605.2z M355.9,658.4v-15l-8.4,4.7l-4.3-2.4v-5.3
		l12.4-7v-9.8l-9,5.8v-10.4l-8.6,5V638l-4.7,2.9l-4-2.6v-9.5l-13,7.4l-5.6-2.3v-6l13.7-7.5l-8.6-4.3v-5.5l4.9-2.7l12.3,7.2l8.5-4.9
		l-0.2-0.2l-8.7-5l8.5-5.3l-8.5-4.9l-12.3,7.2l-4.6-2.3v-5.4l8.3-4.7l-13.3-7.2v-6l5.1-2.6l13.1,7.5v-9.6l3.9-2.7l4.8,2.8l0,14.4
		l8.8,5l0-10.2l9.2,5v-9.8l-12.4-7.1v-5.2l4.3-2.5l8.4,4.7v-14.9l4.8-3.1l4.8,3.1v14.9l8.6-4.8l4.3,2.9v4.7l-12.8,7.3v9.8l8.8-5.3
		v10.7l9-4.9v-15.4l4.3-2l4.6,2v9.9l13.4-7.3l4.7,2.9v5.6l-13.1,7.5l8.2,4.6v5.3l-4.3,2.4l-12.6-7.4l-8.7,5.5l8.4,5.3l-8.7,5l9,4.7
		l12.6-7l4.1,2.9v5.1l-7.9,4.4l12.6,7.5v5.9l-5.3,2.4l-12.4-7v9.3L388,641l-4.3-2.5v-14.2l-9.2-5.2v9.8l-8.8-5.3v9.8l12.4,7v5.6
		l-4.3,2.1l-8.3-4.7v15l-4.8,3.1L355.9,658.4z"/>
	<path fill="#010101" d="M226.7,605.2l4.5,6.6h8.3l3.9-6.6l-4.1-7H231L226.7,605.2z M230.2,658.4v-15l-8.4,4.7l-4.3-2.4v-5.3l12.4-7
		v-9.8l-9,5.8v-10.4l-8.6,5V638l-4.7,2.9l-4-2.6v-9.5l-13,7.4l-5.6-2.3v-6l13.7-7.5l-8.6-4.3v-5.5l4.9-2.7l12.3,7.2l8.5-4.9
		l-0.2-0.2l-8.7-5l8.5-5.3l-8.5-4.9l-12.3,7.2l-4.6-2.3v-5.4l8.3-4.7l-13.3-7.2v-6l5.1-2.6l13.1,7.5v-9.6l3.9-2.7l4.8,2.8l0,14.4
		l8.8,5l0-10.2l9.2,5v-9.8l-12.4-7.1v-5.2l4.3-2.5l8.4,4.7v-14.9l4.8-3.1l4.8,3.1v14.9l8.6-4.8l4.3,2.9v4.7l-12.8,7.3v9.8l8.8-5.3
		v10.7l9-4.9v-15.4l4.3-2l4.6,2v9.9l13.4-7.3l4.7,2.9v5.6l-13.1,7.5l8.2,4.6v5.3l-4.3,2.4l-12.6-7.4l-8.7,5.5l8.4,5.3l-8.7,5l9,4.7
		l12.6-7l4.1,2.9v5.1l-7.9,4.4l12.6,7.5v5.9l-5.3,2.4l-12.4-7v9.3l-4.4,2.5l-4.3-2.5v-14.2l-9.2-5.2v9.8l-8.8-5.3v9.8l12.4,7v5.6
		l-4.3,2.1l-8.3-4.7v15l-4.8,3.1L230.2,658.4z"/>
	<path fill="#010101" d="M167.4,483.2l4.5,6.6h8.3l3.9-6.6l-4.1-7h-8.4L167.4,483.2z M170.9,536.4v-15l-8.4,4.7l-4.2-2.4v-5.3
		l12.4-7v-9.8l-9,5.8v-10.4l-8.6,4.9V516l-4.7,2.9l-4-2.6v-9.5l-13,7.4l-5.6-2.3v-6l13.7-7.5l-8.6-4.3v-5.4l4.9-2.7l12.3,7.2
		l8.5-4.9l-0.2-0.2l-8.7-5l8.5-5.3l-8.5-4.9l-12.3,7.2l-4.6-2.3v-5.4l8.3-4.7l-13.3-7.2v-6l5.1-2.6l13.1,7.5v-9.6l3.9-2.7l4.8,2.8
		l0,14.4l8.8,5l0-10.2l9.2,5v-9.8l-12.4-7.1v-5.2l4.3-2.5l8.4,4.7v-14.9l4.8-3.1l4.8,3.1v14.9l8.6-4.8l4.3,2.9v4.7l-12.8,7.3v9.8
		l8.8-5.3v10.7l9-4.9v-15.4l4.3-2l4.6,2v9.9l13.4-7.3l4.7,2.9v5.6l-13.1,7.5l8.2,4.6v5.3l-4.3,2.4l-12.6-7.4l-8.7,5.5l8.4,5.3
		l-8.7,5l9,4.7l12.6-7l4.1,2.9v5.1l-7.9,4.4l12.6,7.5v5.9l-5.3,2.4l-12.4-7v9.3L203,519l-4.3-2.5v-14.2l-9.2-5.2v9.8l-8.8-5.3v9.8
		l12.4,7v5.6l-4.3,2.1l-8.3-4.7v15l-4.9,3.1L170.9,536.4z"/>
</g>
<g id="niebla">
	<g opacity="0.5">
		<g>
			<g>
				<path fill="#010101" d="M452.3,651.6c-0.6,0-1.2,0-1.8-0.1c-11.7-0.7-22.4-8-29.5-20.1l-5.3-9.1c-2.4-4.1-4.5-5-4.9-5
					c-0.4,0-2.5,0.9-4.9,5l-5.3,9.1c-6.9,11.8-17.4,18.6-28.6,18.6s-21.7-6.8-28.7-18.6l-5.3-9.1c-2-3.3-4.4-5.4-6.4-5.5
					c-1.9-0.2-4.6,1.7-6.9,4.9l-9.4,12.8c-7.9,10.8-19.1,16.7-30.6,16.1c-11.5-0.6-22-7.6-28.8-19.1l-5.3-9.1
					c-2-3.4-4.4-5.4-6.4-5.5c-2,0-4.6,1.7-6.9,4.9l-9.4,12.8c-7.9,10.8-19.1,16.7-30.6,16.1c-11.5-0.6-22-7.5-28.8-19.1l-5.3-9.1
					c-2.1-3.6-4.8-5.8-7.4-6c-2.6-0.3-5.4,1.4-8,4.5l-21.2,25.1l-21.1-17.8l21.2-25.1c8.4-10,20-15.2,31.5-14.2
					c11.6,1,22.2,8.1,28.9,19.6l5.3,9.1c2,3.3,4.3,5.4,6.4,5.5c2.1,0,4.6-1.7,6.9-4.9l9.4-12.8c7.9-10.8,19.1-16.7,30.6-16.1
					c11.5,0.6,22,7.6,28.8,19.1l5.3,9.1c2,3.4,4.4,5.4,6.4,5.5c2.2,0.2,4.6-1.7,6.9-4.9l9.4-12.8c7.9-10.8,19.1-16.7,30.6-16.1
					c11.5,0.6,22,7.5,28.8,19.1l5.3,9.1c2.4,4.1,4.5,5,4.9,5c0.4,0,2.5-0.9,4.9-5l5.3-9.1c6.9-11.8,17.4-18.6,28.6-18.6
					s21.7,6.8,28.7,18.6l5.3,9.1c2.7,4.7,5.7,6.4,7.4,6.5c1.8,0.2,3.6-1.9,4.5-3.1l18-23.7l22,16.7l-18,23.7
					C471.9,646.5,462.3,651.6,452.3,651.6z"/>
			</g>
		</g>
		<g>
			<g>
				<path fill="#010101" d="M452.3,574.3c-0.6,0-1.2,0-1.8-0.1c-11.7-0.7-22.4-8-29.5-20.1l-5.3-9.1c-2.4-4.1-4.5-5-4.9-5
					c-0.4,0-2.5,0.9-4.9,5l-5.3,9.1c-6.9,11.8-17.4,18.6-28.6,18.6s-21.7-6.8-28.7-18.6l-5.3-9.1c-2-3.3-4.4-5.4-6.4-5.5
					c-1.9-0.2-4.6,1.7-6.9,4.9l-9.4,12.8c-7.9,10.8-19.1,16.7-30.6,16.1c-11.5-0.6-22-7.6-28.8-19.1l-5.3-9.1
					c-2-3.4-4.4-5.4-6.4-5.5c-2,0-4.6,1.7-6.9,4.9l-9.4,12.8c-7.9,10.8-19.1,16.7-30.6,16.1c-11.5-0.6-22-7.5-28.8-19.1l-5.3-9.1
					c-2.1-3.6-4.8-5.8-7.4-6c-2.6-0.3-5.4,1.4-8,4.5l-21.2,25.1l-21.1-17.8l21.2-25.1c8.4-10,20-15.2,31.5-14.2
					c11.6,1,22.2,8.1,28.9,19.6l5.3,9.1c2,3.3,4.3,5.4,6.4,5.5c2.1,0,4.6-1.7,6.9-4.9l9.4-12.8c7.9-10.8,19.1-16.6,30.6-16.1
					c11.5,0.6,22,7.6,28.8,19.1l5.3,9.1c2,3.4,4.4,5.4,6.4,5.5c2.2,0.2,4.6-1.7,6.9-4.9l9.4-12.8c7.9-10.8,19.1-16.7,30.6-16.1
					c11.5,0.6,22,7.5,28.8,19.1l5.3,9.1c2.4,4.1,4.5,5,4.9,5c0.4,0,2.5-0.9,4.9-5l5.3-9.1c6.9-11.8,17.4-18.6,28.6-18.6
					s21.7,6.8,28.7,18.6l5.3,9.1c2.7,4.7,5.7,6.4,7.4,6.5c1.8,0.2,3.6-1.9,4.5-3.1l18-23.7l22,16.7l-18,23.7
					C471.9,569.3,462.3,574.3,452.3,574.3z"/>
			</g>
		</g>
		<g>
			<g>
				<path fill="#010101" d="M452.3,497c-0.6,0-1.2,0-1.8-0.1c-11.7-0.7-22.4-8-29.5-20.1l-5.3-9.1c-2.4-4.1-4.5-5-4.9-5
					c-0.4,0-2.5,0.9-4.9,5l-5.3,9.1c-6.9,11.8-17.4,18.6-28.6,18.6s-21.7-6.8-28.7-18.6l-5.3-9.1c-2-3.3-4.4-5.4-6.4-5.5
					c-1.9-0.2-4.6,1.7-6.9,4.9l-9.4,12.8c-7.9,10.8-19.1,16.6-30.6,16.1c-11.5-0.6-22-7.6-28.8-19.1l-5.3-9.1
					c-2-3.4-4.4-5.4-6.4-5.5c-2,0-4.6,1.7-6.9,4.9l-9.4,12.8c-7.9,10.8-19.1,16.7-30.6,16.1c-11.5-0.6-22-7.5-28.8-19.1l-5.3-9.1
					c-2.1-3.6-4.8-5.8-7.4-6c-2.6-0.3-5.4,1.4-8,4.5l-21.2,25.1l-21.1-17.8l21.2-25.1c8.4-10,20-15.2,31.5-14.2
					c11.6,1,22.2,8.1,28.9,19.6l5.3,9.1c2,3.3,4.3,5.4,6.4,5.5c2.1,0,4.6-1.7,6.9-4.9l9.4-12.8c7.9-10.8,19.1-16.7,30.6-16.1
					c11.5,0.6,22,7.6,28.8,19.1l5.3,9.1c2,3.4,4.4,5.4,6.4,5.5c2.2,0.2,4.6-1.7,6.9-4.9l9.4-12.8c7.9-10.8,19.1-16.7,30.6-16.1
					c11.5,0.6,22,7.5,28.8,19.1l5.3,9.1c2.4,4.1,4.5,5,4.9,5c0.4,0,2.5-0.9,4.9-5l5.3-9.1c6.9-11.8,17.4-18.6,28.6-18.6
					s21.7,6.8,28.7,18.6l5.3,9.1c2.7,4.7,5.7,6.4,7.4,6.5c1.8,0.1,3.6-1.9,4.5-3.1l18-23.7l22,16.7l-18,23.7
					C471.9,492,462.3,497,452.3,497z"/>
			</g>
		</g>
	</g>
</g>
<g id="nuve">
	<path fill="#010101" d="M451.4,403.9H104.7c-32.4,0-58.6-26.3-58.6-58.6c0-27.4,18.9-50.6,44.4-56.9c11.4-28.4,37.7-48.8,68.4-52.4
		c3.2-66,58-118.7,124.8-118.7c49,0,92.7,28.8,112.9,71.5c16.6-9.1,35.4-14,54.8-14c63.2,0,114.6,51.4,114.6,114.6
		S514.5,403.9,451.4,403.9L451.4,403.9z M104.3,327c-9.9,0.2-17.8,8.3-17.8,18.2c0,10,8.2,18.2,18.2,18.2h346.7
		c40.9,0,74.1-33.3,74.1-74.1s-33.3-74.1-74.1-74.1c-19.2,0-37.3,7.3-51.2,20.5L373.6,261l-7.3-35.9c-8-39.1-42.8-67.5-82.8-67.5
		c-46.6,0-84.5,37.9-84.5,84.5c0,3.8,0.3,7.7,0.8,11.7l3.8,27.5l-27.3-4.8c-2.6-0.4-5.2-0.7-7.7-0.7c-20.8,0-38.9,14.8-43,35.1
		l-3.4,16.8l-17.1-0.6C105,327,104.7,327,104.3,327L104.3,327z"/>
</g>
</svg>
